<svg width="40" height="40" fill="none" xmlns="http://www.w3.org/2000/svg"><rect width="40" height="40" rx="20" fill="#1B2B33"/><path fill-rule="evenodd" clip-rule="evenodd" d="M26.032 13.11a1.435 1.435 0 0 1 1.428.19 1.38 1.38 0 0 1 .521 1.325l-2.144 12.82a1.873 1.873 0 0 1-2.735 1.329c-.962-.515-2.391-1.31-3.677-2.138-.643-.414-2.612-1.742-2.37-2.687.208-.808 3.517-3.844 5.407-5.65.742-.708.404-1.117-.472-.465-2.177 1.62-5.67 4.082-6.826 4.776-1.019.611-1.55.715-2.185.611-1.16-.19-2.234-.485-3.111-.843-1.186-.485-1.128-2.091-.001-2.56l16.165-6.709z" fill="#1BBCEE"/><path d="M34 39.252c3.313 0 6-2.52 6-5.626C40 30.519 37.313 28 34 28c-3.314 0-6 2.519-6 5.626 0 1.414.557 2.708 1.477 3.697a9.089 9.089 0 0 1-.578 2.383c-.059.15.056.317.205.291 1.692-.297 2.698-.754 3.135-.991A6.365 6.365 0 0 0 34 39.25z" fill="#fff"/></svg>